<?xml version="1.0" encoding="UTF-8" standalone="no"?>
<!-- Created with Inkscape (http://www.inkscape.org/) -->

<svg
   width="180.90315mm"
   height="170.91156mm"
   viewBox="0 0 180.90315 170.91156"
   version="1.1"
   id="svg1"
   xml:space="preserve"
   inkscape:version="1.4.2 (unknown)"
   sodipodi:docname="mybatop.svg"
   xmlns:inkscape="http://www.inkscape.org/namespaces/inkscape"
   xmlns:sodipodi="http://sodipodi.sourceforge.net/DTD/sodipodi-0.dtd"
   xmlns="http://www.w3.org/2000/svg"
   xmlns:svg="http://www.w3.org/2000/svg"><sodipodi:namedview
     id="namedview1"
     pagecolor="#ffffff"
     bordercolor="#000000"
     borderopacity="0.25"
     inkscape:showpageshadow="2"
     inkscape:pageopacity="0.0"
     inkscape:pagecheckerboard="0"
     inkscape:deskcolor="#d1d1d1"
     inkscape:document-units="mm"
     inkscape:zoom="0.49264169"
     inkscape:cx="473.97531"
     inkscape:cy="482.0948"
     inkscape:window-width="1366"
     inkscape:window-height="740"
     inkscape:window-x="0"
     inkscape:window-y="0"
     inkscape:window-maximized="1"
     inkscape:current-layer="g1"
     showgrid="false"><inkscape:page
       x="0"
       y="0"
       width="180.90315"
       height="170.91156"
       id="page2"
       margin="0"
       bleed="0" /></sodipodi:namedview><defs
     id="defs1" /><g
     inkscape:label="Layer 1"
     inkscape:groupmode="layer"
     id="layer1"
     transform="translate(-14.752265,-62.978841)"><g
       id="g1"
       transform="matrix(1.6308161,0,0,1.5391733,-74.089468,-81.632917)"><path
         style="fill:#00ff00"
         d="m 70.911592,179.4688 c -0.732482,-0.96759 -1.331786,-1.8421 -1.331786,-1.94337 0,-0.10126 0.252174,-0.41093 0.560388,-0.68814 0.308213,-0.27722 2.420573,-2.58762 4.694133,-5.13424 2.27356,-2.54661 4.319386,-4.76917 4.54628,-4.93902 0.226895,-0.16985 1.120451,-1.18188 1.985681,-2.24896 0.865231,-1.06708 2.300599,-2.65452 3.189708,-3.52764 1.322272,-1.29851 6.770265,-7.28849 12.633754,-13.89063 0.58158,-0.65484 1.58114,-1.76039 2.221244,-2.45678 l 1.163826,-1.26616 1.56811,1.35848 c 0.86247,0.74717 1.56812,1.4426 1.56812,1.5454 0,0.1028 -2.64914,3.10413 -5.886974,6.66963 -3.237838,3.56549 -6.355185,7.07124 -6.927437,7.79055 -0.572252,0.71931 -1.968993,2.26034 -3.103868,3.42451 -1.134876,1.16416 -2.268182,2.41432 -2.518458,2.77812 -0.250277,0.3638 -2.187286,2.55874 -4.304465,4.87763 -2.11718,2.31889 -4.902669,5.38475 -6.189976,6.81302 -1.287307,1.42827 -2.384643,2.59685 -2.438526,2.59685 -0.05388,0 -0.697271,-0.79166 -1.429754,-1.75925 z m 37.679978,-41.27586 c -0.71976,-0.65925 -1.51762,-1.27992 -1.77305,-1.37927 -0.39287,-0.1528 -0.25023,-0.40512 0.92604,-1.63809 0.76475,-0.80161 2.71769,-2.94187 4.33987,-4.75615 1.62217,-1.81427 4.74413,-5.2632 6.93767,-7.66429 2.19355,-2.4011 3.98663,-4.48469 3.98464,-4.63021 -0.002,-0.14552 -0.59388,-0.71977 -1.31528,-1.2761 -0.72141,-0.55634 -1.31165,-1.10392 -1.31165,-1.21686 0,-0.11293 1.27992,-0.53805 2.84427,-0.94471 1.56435,-0.40666 3.88607,-1.06572 5.15937,-1.46458 2.02505,-0.63435 2.31575,-0.67102 2.3203,-0.29273 0.008,0.67054 -0.88075,10.47481 -0.95908,10.57939 -0.0382,0.051 -0.34522,-0.16948 -0.68227,-0.48999 -0.33705,-0.32051 -1.01077,-0.89079 -1.49716,-1.26729 l -0.88438,-0.68456 -1.36459,1.56406 c -2.40386,2.75523 -7.09312,7.87224 -8.93199,9.74676 -0.98086,0.99989 -2.41015,2.60723 -3.17618,3.57187 -0.76603,0.96465 -1.82369,2.13359 -2.35035,2.59765 l -0.95756,0.84374 z"
         id="path4" /><path
         style="fill:#00ffff;stroke:#ffffff;stroke-width:0;stroke-linecap:round;stroke-dasharray:none;paint-order:markers fill stroke"
         d="m 63.535939,166.51553 2.233738,4.6089 31.272315,-33.88166 17.634768,15.44605 24.9238,-27.15516 3.05669,2.4913 1.05808,-11.08628 -10.81599,2.98956 2.93913,2.61587 -21.63198,23.54277 -17.869887,-15.69518 z"
         id="path2" /><path
         style="fill:#ffffff"
         d="m 103.87372,204.75012 c -10.372934,-1.09401 -21.490404,-5.86632 -29.686844,-12.74344 -9.26568,-7.77424 -16.08645,-19.06108 -18.50549,-30.62238 -1.25303,-5.98859 -1.56299,-13.92496 -0.76678,-19.63349 2.93092,-21.01383 17.5956,-38.58303 37.68395,-45.147746 6.41284,-2.09567 11.648464,-2.82102 18.878014,-2.6154 7.72971,0.21984 13.44903,1.44162 20.1807,4.31108 22.40469,9.550256 36.066,32.934686 33.42183,57.209006 -1.45051,13.31616 -8.23203,26.5326 -18.10868,35.29185 -8.77329,7.78074 -19.74455,12.69022 -31.22082,13.97088 -2.76191,0.30821 -8.85971,0.29776 -11.87588,-0.0204 z m 13.03255,-6.20874 c 1.61169,-0.23714 2.98149,-0.58 3.20896,-0.8032 0.29416,-0.28866 0.39461,-0.98616 0.38815,-2.6951 -0.0108,-2.84841 -0.60261,-4.76404 -2.80564,-9.08121 -0.87205,-1.70891 -1.59508,-3.44335 -1.60673,-3.85432 -0.0117,-0.41096 0.36065,-1.36773 0.82736,-2.12615 1.36599,-2.21984 1.95001,-4.16596 1.96816,-6.55856 0.0188,-2.4815 -0.53378,-3.81705 -2.12056,-5.12501 -2.05732,-1.69581 -4.77225,-1.28238 -7.01555,1.06834 l -1.23669,1.29591 -0.73723,-0.96656 c -2.04451,-2.6805 -5.32788,-3.23521 -7.50535,-1.26799 -1.474554,1.33217 -1.945264,2.75844 -1.803254,5.46397 0.0925,1.76246 0.28256,2.55813 0.95354,3.99198 0.46091,0.98494 1.078844,2.129 1.373194,2.54238 0.29435,0.41337 0.53518,0.8841 0.53518,1.04606 0,0.16196 -0.5998,1.35848 -1.332894,2.65893 -1.72014,3.05141 -2.74547,5.55868 -3.30899,8.09159 -0.44395,1.9955 -0.40215,4.44033 0.0842,4.92673 0.24082,0.24082 4.378474,1.18707 6.674314,1.52637 2.61546,0.38654 10.45172,0.30843 13.45979,-0.13416 z m -9.90953,-17.85386 c -1.74036,-0.91548 -4.50777,-2.84151 -5.21771,-3.63136 -0.4625,-0.51455 -0.4564,-0.54656 0.20318,-1.06538 0.374,-0.29419 1.73858,-1.08162 3.03239,-1.74985 3.51916,-1.81757 4.36919,-1.71372 9.20902,1.12509 0.90697,0.53198 1.65111,1.11433 1.65365,1.2941 0.007,0.49379 -2.6551,2.48036 -4.99323,3.72616 -1.14202,0.6085 -2.13948,1.10635 -2.21657,1.10635 -0.0771,0 -0.82892,-0.3623 -1.67073,-0.80511 z m -4.87319,-7.92614 c -0.29103,-0.29104 -0.52916,-0.82682 -0.52916,-1.19062 0,-0.79449 0.85411,-1.71979 1.5875,-1.71979 0.71116,0 1.5875,0.91687 1.5875,1.66092 0,1.5555 -1.58928,2.30604 -2.64584,1.24949 z m 11.07588,0.25992 c -0.65454,-0.38226 -0.84883,-1.53574 -0.37938,-2.25224 0.92763,-1.41572 2.79726,-0.88843 2.79726,0.7889 0,1.45109 -1.19766,2.17594 -2.41788,1.46334 z m 19.14629,20.55475 c 19.95806,-10.44496 30.53388,-32.29741 26.11796,-53.96665 -3.77573,-18.52785 -17.88067,-33.39318 -36.23053,-38.18373 -1.38314,-0.3611 -3.70542,-0.82719 -5.16063,-1.03577 -3.50878,-0.502926 -11.16436,-0.497626 -14.53266,0.0101 -12.296264,1.85333 -23.629464,8.4009 -31.367164,18.12185 -12.51702,15.72528 -14.30822,37.44188 -4.54227,55.07057 4.47538,8.07858 12.42677,15.75837 20.60803,19.90413 l 1.38378,0.70121 0.78996,-1.74221 c 0.43447,-0.95822 1.60979,-2.77507 2.6118,-4.03744 3.65627,-4.60627 4.40343,-6.445 4.26556,-10.4973 -0.23532,-6.91622 -0.1075,-9.98484 0.50656,-12.16154 0.81522,-2.88971 1.97967,-4.95767 3.652554,-6.48659 2.40608,-2.19903 5.01089,-3.16445 8.55405,-3.17039 6.50804,-0.0109 10.79721,3.752 12.42411,10.89978 0.86061,3.78096 1.03127,6.49781 0.60166,9.57791 -0.66877,4.7948 0.0876,7.12599 3.66261,11.28785 2.26527,2.63715 3.26054,4.28003 3.56003,5.87645 0.105,0.55971 0.33768,0.97757 0.54436,0.97757 0.19852,0 1.34612,-0.51559 2.55024,-1.14575 z M 76.723556,166.63184 c -1.08743,-0.30648 -2.47948,-1.56133 -2.92487,-2.63661 -0.29888,-0.72155 -0.23752,-0.84681 1.23825,-2.52774 l 1.55272,-1.76856 0.18574,1.3057 c 0.26994,1.89759 1.05431,2.49634 3.27021,2.49634 0.93777,0 1.70324,0.0893 1.70106,0.19844 -0.002,0.10914 -0.63938,0.88304 -1.41599,1.71979 -1.49283,1.60842 -1.8166,1.71726 -3.60712,1.21264 z m 47.763274,0.0538 c -0.17995,-0.29116 -0.92481,-2.6851 -0.92916,-2.98623 -0.002,-0.10915 3.02763,-0.19844 6.73156,-0.19844 7.13999,0 7.80081,-0.0979 8.31765,-1.23225 0.20193,-0.44318 0.29376,-4.51715 0.29376,-13.03202 0,-15.21703 0.47279,-13.78156 -4.53918,-13.78156 -1.95196,0 -3.40423,-0.10407 -3.35423,-0.24036 0.0485,-0.1322 0.72001,-0.9061 1.49225,-1.71979 l 1.40404,-1.47944 h 2.34904 c 1.29198,0 2.68422,0.127 3.09388,0.28221 1.58531,0.60066 2.7076,2.17662 2.75583,3.86985 0.0158,0.55402 0.0874,2.03598 0.15911,3.29324 l 0.1304,2.28592 1.69956,0.10822 c 1.31105,0.0835 1.83437,0.24291 2.28932,0.69741 0.56697,0.56642 0.59305,0.80629 0.67451,6.20482 0.091,6.0324 -0.0841,7.30682 -1.07362,7.81364 -0.32924,0.16863 -1.31299,0.33837 -2.18612,0.37721 l -1.5875,0.0706 -0.13229,3.57187 c -0.14787,3.99247 -0.35206,4.54452 -2.0779,5.61774 -0.93319,0.58031 -1.20053,0.60215 -8.15888,0.66645 -4.41727,0.0408 -7.25504,-0.0322 -7.35203,-0.1891 z m -38.502854,-0.1578 c 0,-0.0815 0.61258,-0.79585 1.36129,-1.5875 l 1.3613,-1.43937 h 2.88986 c 2.62706,0 2.87765,0.0421 2.7555,0.46302 -0.0739,0.25466 -0.26511,0.96904 -0.4249,1.5875 l -0.29053,1.12448 h -3.82626 c -2.10445,0 -3.82626,-0.0667 -3.82626,-0.14813 z m -5.90903,-5.84909 c -0.097,-0.097 -0.17639,-1.15095 -0.17639,-2.34209 v -2.16569 l 4.26675,-4.73552 c 2.34671,-2.60454 6.00788,-6.6699 8.13593,-9.03413 3.51629,-3.90654 3.94899,-4.29869 4.74408,-4.29948 0.91497,-9.1e-4 0.93346,0.0146 14.009474,11.71938 1.92899,1.72672 3.60535,3.10003 3.72524,3.0518 0.24208,-0.0974 8.31676,-8.90869 11.42061,-12.46248 l 1.98437,-2.27204 3.77032,-0.0188 3.7703,-0.0188 v 11.37681 11.37681 l -6.7338,-0.014 -6.73379,-0.014 -1.21942,-1.70886 c -4.98763,-6.98953 -16.13797,-8.00649 -22.392014,-2.04224 -0.88274,0.84183 -1.90161,2.03661 -2.26415,2.65508 l -0.65918,1.12447 h -2.24587 c -1.23523,0 -2.20618,-0.10565 -2.15767,-0.23478 0.0485,-0.12912 2.91593,-3.35489 6.37205,-7.16836 3.456124,-3.81347 6.273304,-7.07133 6.260404,-7.2397 -0.0254,-0.33131 -3.01549,-3.08424 -3.34996,-3.08424 -0.11188,0 -1.333394,1.27794 -2.714484,2.83986 -1.38109,1.56192 -3.70169,4.15242 -5.1569,5.75665 -1.45521,1.60423 -3.64596,4.047 -4.86834,5.42837 -3.42876,3.87472 -3.16999,3.7022 -5.55336,3.7022 -1.1318,0 -2.13718,-0.0794 -2.2342,-0.17638 z m -6.46904,-15.52111 0.0749,-10.40583 0.76248,-0.99933 c 1.3022,-1.70668 1.50071,-1.73693 11.39985,-1.73693 4.87962,0 8.87204,0.0689 8.87204,0.15318 0,0.0842 -0.61317,0.85816 -1.36259,1.7198 l -1.3626,1.56661 h -7.06306 c -6.78753,0 -7.08224,0.0212 -7.55458,0.54312 -0.52703,0.58236 -0.53538,0.7423 -0.61584,11.79185 l -0.033,4.52978 -1.38907,1.60265 c -0.76398,0.88147 -1.48231,1.61127 -1.59629,1.6218 -0.11398,0.0105 -0.17351,-4.6635 -0.13229,-10.3867 z m 6.29265,-1.765 v -5.29167 h 4.80351 c 4.54717,0 4.78266,0.0247 4.41292,0.46302 -1.16588,1.3821 -9.04217,10.12031 -9.12205,10.12031 -0.0519,0 -0.0944,-2.38125 -0.0944,-5.29166 z m 31.172334,-0.0662 c -1.6562,-1.49159 -3.66228,-3.27201 -4.45795,-3.95649 l -1.44667,-1.24452 0.68913,-0.69537 0.68913,-0.69537 1.63832,1.51679 1.63833,1.5168 0.86014,-0.83368 0.86014,-0.83368 h 5.11142 5.11142 l -0.99515,1.12448 c -2.65941,3.00504 -6.27537,6.81302 -6.46947,6.81302 -0.11964,0 -1.5726,-1.22039 -3.22879,-2.71198 z m -10.60201,-9.525 -2.000434,-1.65365 3.033114,-0.0747 c 1.66821,-0.0411 4.32892,-0.0411 5.9127,0 l 2.87958,0.0747 -1.57452,1.65365 -1.57452,1.65365 h -2.33775 -2.33774 z m 13.82551,1.41038 c 0,-0.13379 0.60726,-0.9077 1.34947,-1.71979 l 1.34945,-1.47653 h 5.14929 5.14928 l -1.53781,1.71965 -1.5378,1.71964 -4.96094,1.5e-4 c -2.84112,8e-5 -4.96094,-0.1038 -4.96094,-0.24312 z"
         id="path1" /></g></g></svg>
