<?xml version="1.0" encoding="UTF-8" standalone="no"?>
<!-- Created with Inkscape (http://www.inkscape.org/) -->

<svg
   width="180.90315mm"
   height="170.91156mm"
   viewBox="0 0 180.90315 170.91156"
   version="1.1"
   id="svg1"
   xml:space="preserve"
   inkscape:version="1.4.2 (unknown)"
   sodipodi:docname="mybatop.svg"
   xmlns:inkscape="http://www.inkscape.org/namespaces/inkscape"
   xmlns:sodipodi="http://sodipodi.sourceforge.net/DTD/sodipodi-0.dtd"
   xmlns="http://www.w3.org/2000/svg"
   xmlns:svg="http://www.w3.org/2000/svg"><sodipodi:namedview
     id="namedview1"
     pagecolor="#ffffff"
     bordercolor="#000000"
     borderopacity="0.25"
     inkscape:showpageshadow="2"
     inkscape:pageopacity="0.0"
     inkscape:pagecheckerboard="0"
     inkscape:deskcolor="#d1d1d1"
     inkscape:document-units="mm"
     inkscape:zoom="0.49264169"
     inkscape:cx="473.97531"
     inkscape:cy="482.09481"
     inkscape:window-width="1366"
     inkscape:window-height="740"
     inkscape:window-x="0"
     inkscape:window-y="0"
     inkscape:window-maximized="1"
     inkscape:current-layer="g1"
     showgrid="false"><inkscape:page
       x="0"
       y="0"
       width="180.90315"
       height="170.91156"
       id="page2"
       margin="0"
       bleed="0" /></sodipodi:namedview><defs
     id="defs1" /><g
     inkscape:label="Layer 1"
     inkscape:groupmode="layer"
     id="layer1"
     transform="translate(-14.752267,-62.978837)"><g
       id="g1"
       transform="matrix(1.6308161,0,0,1.5391733,-74.089468,-81.632917)"><g
         id="g8"
         transform="translate(1.317305,1.0468032)"
         inkscape:export-filename="mybatop.svg"
         inkscape:export-xdpi="95.113518"
         inkscape:export-ydpi="95.113518"><path
           style="fill:#00ffff"
           d="m 64.189767,169.70857 c -0.330505,-0.86128 -0.159457,-1.37649 0.513027,-1.54527 0.370494,-0.093 0.778986,-0.10396 0.907759,-0.0244 0.128774,0.0796 0.308919,0.0237 0.400322,-0.1242 0.0914,-0.14789 0.284151,-0.2689 0.428326,-0.2689 0.144176,0 -0.18572,0.53579 -0.733102,1.19063 -1.088577,1.30229 -1.276219,1.39783 -1.516332,0.77211 z m 1.734665,-3.17935 c -0.314098,-0.22001 -0.486025,-0.55256 -0.400666,-0.775 0.08223,-0.2143 0.02886,-0.38964 -0.118604,-0.38964 -0.147466,0 -0.2062,-0.23678 -0.130519,-0.52619 0.07568,-0.2894 0.229592,-0.46933 0.342025,-0.39985 0.112432,0.0695 0.266343,-0.11044 0.342024,-0.39985 0.140742,-0.5382 -0.185485,-0.72894 -0.467174,-0.27316 -0.08601,0.13916 -0.315535,0.19195 -0.510057,0.11731 -0.194522,-0.0746 -0.802676,0.28774 -1.351453,0.8053 -0.548777,0.51757 -1.048635,0.94103 -1.110797,0.94103 -0.08718,0 5.585412,-6.2755 8.955366,-9.90718 0.262565,-0.28296 0.54928,-0.44258 0.637143,-0.35471 0.08786,0.0879 -0.385079,0.66196 -1.050983,1.27577 -0.665905,0.6138 -1.210736,1.21991 -1.210736,1.3469 0,0.44009 1.783878,0.2284 2.442775,-0.28989 0.49233,-0.38726 0.628689,-0.69531 0.531904,-1.2016 -0.07158,-0.37446 -0.02603,-0.65637 0.101231,-0.62645 0.321678,0.0756 1.76116,-0.32503 2.091252,-0.58204 0.149803,-0.11663 0.631104,-0.20186 1.069556,-0.1894 0.99114,0.0282 2.120737,-0.53436 1.772423,-0.88268 -0.137364,-0.13736 -0.596631,-0.31003 -1.020593,-0.3837 -0.423962,-0.0737 -0.903028,-0.30744 -1.064592,-0.51949 -0.360375,-0.47297 -0.93562,-0.49521 -1.417477,-0.0548 -0.525497,0.48029 2.072524,-2.94899 3.023172,-3.99047 0.442598,-0.48489 1.042849,-1.00703 1.33389,-1.16032 0.291042,-0.15329 0.43449,-0.17782 0.318773,-0.0545 -0.218243,0.23255 2.307829,0.85905 3.583831,0.88884 0.400183,0.009 0.727605,0.11126 0.727605,0.22648 0,0.11523 -0.535288,0.73484 -1.189529,1.37693 -0.927463,0.91024 -1.25972,1.09725 -1.508125,0.84884 -0.175228,-0.17523 -0.511002,-0.3186 -0.746163,-0.3186 -0.235162,0 -0.794617,-0.41458 -1.243232,-0.9213 l -0.815666,-0.92131 -0.814943,0.83354 -0.814944,0.83354 0.589738,0.34188 c 0.324356,0.18803 0.857629,0.48476 1.185051,0.6594 0.327422,0.17464 0.595313,0.54028 0.595313,0.81253 0,0.27225 0.172431,0.56117 0.383181,0.64204 0.297566,0.11419 0.153833,0.48182 -0.643281,1.64534 -1.058191,1.54462 -5.556105,5.90753 -6.236053,6.04889 -0.210657,0.0438 -0.531842,0.12692 -0.713743,0.18472 -0.181901,0.0578 -0.59862,0.19075 -0.926042,0.29544 -0.327421,0.10469 -0.595312,0.29552 -0.595312,0.42407 0,0.12855 -0.0893,0.21962 -0.198438,0.20239 -0.481948,-0.0761 -0.880476,0.0486 -0.762988,0.23867 0.07048,0.11403 -0.28621,0.19358 -0.792635,0.17677 -0.633184,-0.021 -0.999293,0.11617 -1.17217,0.43919 -0.211301,0.39482 -0.156239,0.45263 0.345229,0.36246 0.557224,-0.10021 0.565002,-0.0834 0.117773,0.25412 -0.302529,0.22833 -0.375598,0.42522 -0.198437,0.53471 0.154229,0.0953 0.280416,0.0472 0.280416,-0.10689 0,-0.39234 0.72087,-0.35113 0.88385,0.0505 0.104328,0.25712 0.19022,0.25082 0.385892,-0.0283 0.156923,-0.22385 0.463871,-0.2917 0.815196,-0.18019 0.380508,0.12076 0.612683,0.0507 0.714947,-0.21582 0.0833,-0.21706 0.3506,-0.47038 0.59401,-0.56293 0.24341,-0.0926 -0.02721,0.31407 -0.601382,0.9036 -0.764554,0.785 -1.106295,0.98389 -1.276914,0.74313 -0.170884,-0.24114 -0.202875,-0.22298 -0.120044,0.0681 0.11469,0.40308 -0.653039,1.59982 -1.047487,1.63283 -0.118677,0.01 -0.469223,0.11442 -0.77899,0.2322 -0.369829,0.1406 -0.752125,0.0818 -1.113397,-0.17123 z m 46.518358,-15.85446 c -0.54255,-0.57752 -0.57533,-0.71493 -0.24455,-1.02516 0.45177,-0.42372 2.04173,-0.693 2.69196,-0.45592 0.39602,0.14439 0.33527,0.30081 -0.44954,1.15747 -0.49909,0.54478 -1.01181,0.99052 -1.13938,0.99052 -0.12758,0 -0.51389,-0.30011 -0.85849,-0.66691 z m 2.78179,-2.24588 c -0.26013,-0.42089 0.14477,-1.37293 0.52229,-1.22806 0.1874,0.0719 0.4743,-0.003 0.63756,-0.16608 0.2034,-0.2034 0.38248,-0.21116 0.56899,-0.0247 0.18651,0.18651 0.0972,0.49463 -0.28379,0.97896 -0.57355,0.72915 -1.15657,0.90661 -1.44505,0.43983 z m -6.43999,-1.03222 -0.68879,-0.63773 1.58075,-0.58984 c 0.86941,-0.32442 1.52121,-0.68094 1.44845,-0.79227 -0.0728,-0.11133 0.0766,-0.23308 0.33199,-0.27056 0.25535,-0.0375 0.41204,0.0164 0.34819,0.1197 -0.0639,0.10332 -0.0222,0.33979 0.0926,0.52549 0.16435,0.26593 0.29713,0.2492 0.6251,-0.0788 0.22903,-0.22904 0.52626,-0.41643 0.6605,-0.41643 0.13424,0 0.80228,-0.60599 1.48454,-1.34665 0.87304,-0.94775 1.33535,-1.27198 1.56077,-1.09459 0.17616,0.13864 1.07076,0.54937 1.98801,0.91275 l 1.66771,0.66069 -0.68605,0.81533 c -0.68517,0.81428 -0.68746,0.81483 -1.79109,0.42544 -1.60864,-0.56756 -2.76926,-0.22971 -2.60696,0.75887 0.0186,0.11319 -0.14523,0.2745 -0.36403,0.35846 -0.21879,0.084 -0.33723,0.25066 -0.26319,0.37046 0.17391,0.2814 -0.5836,0.47623 -1.59286,0.40968 -0.43656,-0.0288 -0.97235,0.0935 -1.19063,0.27174 -0.60832,0.49672 -1.83967,0.30681 -2.60499,-0.40177 z m -24.382506,-0.0394 c 0,-0.15411 -0.101863,-0.21724 -0.226363,-0.1403 -0.124499,0.0769 -0.17015,-0.15415 -0.101447,-0.51355 0.154756,-0.80955 -0.02197,-0.8235 -0.736559,-0.0581 -0.411428,0.44067 -0.509851,0.47503 -0.378875,0.1323 0.192683,-0.50422 -0.063,-0.5901 -0.650187,-0.2184 -0.241201,0.15268 -0.501817,0.10834 -0.735261,-0.1251 -0.198892,-0.19889 -0.566535,-0.28987 -0.816986,-0.20216 -0.25045,0.0877 0.06548,-0.38346 0.702062,-1.04702 l 1.157425,-1.20647 0.862521,0.44046 c 0.474386,0.24225 0.745903,0.51401 0.603371,0.6039 -0.142532,0.0899 0.02005,0.23958 0.361304,0.33263 0.341249,0.0931 0.850382,0.34605 1.131406,0.56223 0.500884,0.3853 0.498671,0.40612 -0.112266,1.05643 -0.65953,0.70204 -1.060145,0.84684 -1.060145,0.38319 z m 21.011826,-2.95009 -0.91868,-0.80661 0.69929,-0.3628 c 0.38462,-0.19954 0.85748,-0.3628 1.05081,-0.3628 0.19333,0 0.7683,-0.24591 1.27772,-0.54648 1.02845,-0.6068 1.44096,-0.50304 2.49933,0.62865 l 0.61717,0.65993 -0.88175,0.18668 c -0.48497,0.10268 -1.15924,0.44172 -1.49839,0.75343 -0.33914,0.31171 -0.66656,0.53698 -0.7276,0.5006 -0.061,-0.0364 -0.14074,-0.057 -0.17712,-0.0459 -0.69618,0.21306 -1.18169,0.0618 -1.94078,-0.6047 z m -18.788133,-0.77934 c -0.116967,-0.18925 -0.07258,-0.23364 0.116676,-0.11668 0.168005,0.10384 0.305464,0.0557 0.305464,-0.10702 0,-0.1627 0.110836,-0.22731 0.246301,-0.14359 0.135466,0.0837 0.333148,0.001 0.439295,-0.18282 0.106146,-0.18428 0.102585,-0.25381 -0.0079,-0.15451 -0.110499,0.0993 -0.667978,-0.0629 -1.238842,-0.36047 -0.589477,-0.30725 -1.322224,-0.48666 -1.695909,-0.41522 -0.759468,0.14518 -0.662035,-0.0411 0.890108,-1.70222 0.89432,-0.95708 0.922871,-0.96662 1.601776,-0.53528 0.380175,0.24155 0.7787,0.56099 0.885613,0.70987 0.106912,0.14888 0.196209,0.16295 0.198437,0.0312 0.0022,-0.13169 0.212411,-0.0605 0.467073,0.15822 0.254661,0.21872 0.678272,0.47421 0.941357,0.56775 0.438638,0.15597 0.41876,0.24819 -0.239504,1.11122 -1.047597,1.37347 -2.430617,1.91505 -2.909931,1.1395 z m 33.767113,-1.57657 c -0.3597,-0.14354 -0.74483,-0.40389 -0.85585,-0.57854 -0.15177,-0.23876 -0.20286,-0.23161 -0.20591,0.0288 -0.002,0.19544 -0.13809,0.26351 -0.31168,0.15622 -0.1692,-0.10457 -0.65001,-0.26043 -1.06848,-0.34634 l -0.76084,-0.15622 1.8534,-1.98437 c 1.01937,-1.09141 1.86221,-2.10344 1.87298,-2.24896 0.0348,-0.47004 1.51012,-2.02182 2.28647,-2.40494 l 0.75431,-0.37225 -0.7276,0.60478 c -0.99809,0.82961 -0.91404,1.07745 0.16069,0.47382 1.77558,-0.99729 2.76605,-2.47645 1.31839,-1.96887 -0.46329,0.16243 -0.46461,0.14706 -0.0271,-0.31716 0.34721,-0.36845 0.76822,-0.46905 1.71979,-0.41097 0.69302,0.0423 1.43172,0.21517 1.64156,0.38416 0.29553,0.23801 0.33673,0.23272 0.18282,-0.0235 -0.12129,-0.20189 -0.054,-0.33073 0.17279,-0.33073 0.20431,0 0.59829,-0.25859 0.87551,-0.57465 0.27721,-0.31605 0.38303,-0.50482 0.23514,-0.41948 -0.32323,0.18653 -2.79774,-0.24687 -3.0925,-0.54163 -0.1145,-0.1145 1.634,-2.22681 3.88556,-4.69402 2.25156,-2.46721 4.0915,-4.60491 4.08875,-4.75043 -0.003,-0.14552 -0.65175,-0.74083 -1.44225,-1.32291 -0.7905,-0.58209 -1.44033,-1.12586 -1.44408,-1.2084 -0.004,-0.0825 0.90327,-0.36461 2.01559,-0.62684 1.11232,-0.26223 3.52275,-0.9295 5.35651,-1.48283 1.83377,-0.55334 3.38395,-0.95623 3.44485,-0.89533 0.13801,0.13801 -0.97853,10.72824 -1.14907,10.89878 -0.0683,0.0683 -0.76983,-0.42739 -1.55894,-1.10155 l -1.43475,-1.22575 -2.31763,2.58346 c -1.2747,1.4209 -3.08074,3.2822 -4.01343,4.13623 -0.93269,0.85402 -2.15437,2.22804 -2.71484,3.05336 -0.56047,0.82533 -1.22732,1.67347 -1.4819,1.88474 -0.4194,0.34808 -0.44647,0.33252 -0.28833,-0.16576 0.16235,-0.5115 0.0774,-0.5478 -1.21637,-0.51988 -1.10828,0.0239 -1.40931,0.1256 -1.48149,0.50043 -0.0624,0.32417 0.16307,0.56616 0.72537,0.7784 0.44878,0.1694 0.81596,0.3776 0.81596,0.46267 0,0.40767 -1.78295,1.78784 -2.24896,1.74091 -0.76093,-0.0766 -2.86648,-0.73952 -3.15816,-0.99426 -0.29607,-0.25858 -1.20746,0.50228 -1.20746,1.00804 0,0.19573 0.24186,0.35587 0.53747,0.35587 0.29561,0 0.6055,0.1773 0.68866,0.394 0.0832,0.2167 0.61926,0.52004 1.19135,0.67409 l 1.04015,0.28008 -0.55621,0.78112 c -0.58301,0.81877 -1.0163,0.91915 -2.1002,0.48659 z m 14.31065,-14.0502 c 0.20044,-0.3745 0.15899,-0.42783 -0.22294,-0.28684 -0.25803,0.0953 -0.55662,0.30093 -0.66353,0.45707 -0.12854,0.18772 -0.19576,0.16656 -0.19844,-0.0625 -0.002,-0.19049 -0.13107,-0.26784 -0.28633,-0.17189 -0.16944,0.10472 -0.24876,-0.0212 -0.19843,-0.31511 0.0561,-0.32761 -0.0659,-0.47799 -0.36881,-0.45456 -0.24895,0.0193 -0.44321,-0.0403 -0.43169,-0.13229 0.1193,-0.95239 -1.39607,-0.84432 -2.4891,0.17752 -0.85715,0.80132 -0.93904,1.22739 -0.1987,1.03378 0.2909,-0.0761 0.59558,-0.0304 0.67707,0.10144 0.2463,0.39851 0.6406,0.26868 0.47721,-0.15713 -0.14577,-0.37987 0.0509,-0.46302 1.09494,-0.46302 0.86998,0 1.02533,0.12946 0.39688,0.33073 -0.62347,0.19966 -0.6278,0.21335 -0.0755,0.23821 0.3223,0.0145 0.71873,0.27437 0.88095,0.57749 0.2862,0.53476 0.31076,0.53681 0.82757,0.0691 0.29294,-0.2651 0.64341,-0.68902 0.77881,-0.94204 z m 2.08199,-5.74459 c -0.002,-0.51978 -0.0915,-1.0643 -0.19844,-1.21005 -0.25574,-0.34865 -1.41212,-0.88373 -1.91417,-0.88572 -0.21829,-8.7e-4 -0.68339,-0.0885 -1.03357,-0.19471 -0.45159,-0.13699 -0.58165,-0.1041 -0.4474,0.11313 0.1041,0.16844 0.30131,0.30626 0.43825,0.30626 0.13693,0 0.49511,0.24614 0.79595,0.54698 l 0.54698,0.54698 -0.66914,0.87729 -0.66913,0.87728 1.57736,-0.0162 1.57736,-0.0162 z m 0.93009,0.77474 c 0.0899,-0.14552 0.0374,-0.26458 -0.11667,-0.26458 -0.15411,0 -0.2802,0.11906 -0.2802,0.26458 0,0.14552 0.0525,0.26459 0.11668,0.26459 0.0642,0 0.19026,-0.11907 0.28019,-0.26459 z m -0.13229,-0.79375 c 0,-0.14552 -0.12609,-0.26458 -0.2802,-0.26458 -0.15411,0 -0.20661,0.11906 -0.11667,0.26458 0.0899,0.14552 0.21602,0.26459 0.2802,0.26459 0.0642,0 0.11667,-0.11907 0.11667,-0.26459 z m 3.91584,-4.02166 c 0.17462,-0.17463 0.31371,-0.50205 0.30908,-0.72761 -0.007,-0.32106 -0.0965,-0.29521 -0.41432,0.11906 -0.38944,0.5077 -0.39867,0.49965 -0.22749,-0.19843 0.1367,-0.55745 0.0826,-0.72761 -0.23152,-0.72761 -0.22547,0 -0.48353,0.11906 -0.57346,0.26459 -0.0899,0.14552 -0.0374,0.26458 0.11667,0.26458 0.15411,0 0.2802,0.29766 0.2802,0.66146 0,0.72221 0.24762,0.83717 0.74084,0.34396 z m -38.57625,23.65969 c -1.53488,-0.51944 -2.52386,-2.17553 -1.29918,-2.17553 0.30409,0 0.75058,-0.23148 0.99218,-0.5144 0.70503,-0.82559 2.18228,-0.79085 3.32155,0.0781 0.99845,0.76156 1.04689,1.23004 0.12718,1.23004 -0.29216,0 -0.91022,0.28009 -1.37345,0.62243 -1.14013,0.84256 -1.30862,0.91491 -1.76828,0.75935 z m -12.898441,-2.06535 c -0.554781,-0.43723 -0.862881,-0.55354 -0.86831,-0.32779 -0.0057,0.23645 -0.122379,0.19977 -0.359897,-0.11312 -0.193316,-0.25466 -0.606248,-0.46302 -0.917627,-0.46302 -0.708093,0 -0.712592,-0.20688 -0.02052,-0.94356 0.452268,-0.48142 0.701253,-0.54569 1.455209,-0.37564 0.500271,0.11283 0.909584,0.15509 0.909584,0.0939 0,-0.0612 0.351275,0.0704 0.780611,0.29245 0.429336,0.22201 1.024648,0.40367 1.322916,0.40367 0.298269,0 0.542306,0.0957 0.542306,0.21268 0,0.22054 -1.653437,1.90623 -1.864679,1.90105 -0.06583,-0.002 -0.506649,-0.3079 -0.979592,-0.68064 z m 9.500827,-1.18059 c -0.486238,-0.10756 -1.260144,-0.55127 -1.719792,-0.98603 -1.130988,-1.06976 -1.931857,-1.44655 -2.631654,-1.23814 -0.577103,0.17187 -0.577891,0.16848 -0.05615,-0.24151 0.506494,-0.39801 0.483822,-0.41798 -0.529167,-0.46598 -1.871713,-0.0887 -2.628345,-0.16685 -3.461777,-0.35763 -0.704574,-0.16129 -0.912226,-0.0724 -1.521354,0.65155 -0.387976,0.46109 -0.70248,0.7399 -0.698898,0.6196 0.0036,-0.12031 0.985848,-1.17178 2.182813,-2.33661 1.830482,-1.78133 2.312938,-2.11625 3.036195,-2.1077 0.472943,0.006 0.859896,-0.0666 0.859896,-0.16054 0,-0.0939 0.284314,-0.11637 0.631809,-0.0499 0.347495,0.0664 0.861287,-0.002 1.141758,-0.15214 0.420221,-0.22489 0.716404,-0.092 1.683295,0.75549 0.996783,0.87366 1.076761,1.01141 0.531493,0.91543 -0.35302,-0.0621 -0.794289,0.0135 -0.980598,0.16815 -0.186309,0.15462 -0.449531,0.21266 -0.584938,0.12898 -0.135407,-0.0837 -0.393326,0.0251 -0.573154,0.2418 -0.226973,0.27349 -0.236141,0.39397 -0.02998,0.39397 0.163339,0 0.267215,0.146 0.230835,0.32444 -0.03638,0.17845 0.201744,0.36532 0.529166,0.41528 0.574677,0.0877 0.7215,-0.14491 0.608966,-0.96471 -0.02698,-0.19651 0.07753,-0.27905 0.23224,-0.18344 0.499308,0.30859 1.341607,0.38553 1.341607,0.12255 0,-0.37071 1.280643,0.47854 2.579683,1.71071 1.00384,0.95216 1.52753,1.76591 0.87818,1.36459 -0.13546,-0.0837 -0.32228,-0.0293 -0.41516,0.12099 -0.0929,0.15027 -0.27969,0.20472 -0.41515,0.12099 -0.13547,-0.0837 -0.2463,0.0461 -0.2463,0.28858 0,0.30707 -0.13718,0.38816 -0.45215,0.26729 -0.28442,-0.10914 -0.60341,0.0125 -0.8599,0.32802 -0.32399,0.3985 -0.58935,0.46135 -1.291814,0.30596 z m -5.090248,-8.1388 c 0.466996,-0.88951 1.040953,-1.00266 1.696872,-0.33453 l 0.573278,0.58395 -0.726529,-0.32458 c -0.625803,-0.27959 -0.805379,-0.25457 -1.29527,0.18041 -0.566862,0.50334 -0.567682,0.50299 -0.248351,-0.10525 z"
           id="path6" /><path
           style="fill:#00ffff"
           d="m 64.19751,170.18541 c -0.07011,-0.11343 -0.499578,-1.14297 -0.954375,-2.28786 l -0.826905,-2.08161 1.108277,-1.03345 c 0.609552,-0.5684 1.266306,-0.97281 1.459454,-0.89869 0.193147,0.0741 0.421548,0.0209 0.507557,-0.11827 0.281689,-0.45578 0.607916,-0.26504 0.467174,0.27316 -0.07568,0.28941 -0.229592,0.46934 -0.342024,0.39985 -0.112433,-0.0695 -0.266343,0.11045 -0.342025,0.39985 -0.07568,0.28941 -0.01695,0.52619 0.130519,0.52619 0.147466,0 0.200838,0.17534 0.118604,0.38964 -0.230655,0.60108 0.816491,1.21144 1.580209,0.92108 0.346147,-0.13161 0.629359,-0.1827 0.629359,-0.11354 0,0.23576 -0.965071,1.09161 -1.47542,1.30845 -0.488398,0.2075 -0.745121,0.25978 -1.765725,0.35953 -0.522441,0.0511 -0.614599,0.85516 -0.189129,1.65015 0.25859,0.48318 0.167393,0.74716 -0.10555,0.30552 z m 2.939112,-6.0349 c -0.103847,-0.10385 0.0177,-0.34488 0.270096,-0.53564 0.418222,-0.31607 0.406013,-0.33731 -0.137719,-0.23953 -0.501468,0.0902 -0.55653,0.0324 -0.345229,-0.36246 0.172877,-0.32302 0.538986,-0.46019 1.17217,-0.43919 0.506425,0.0168 0.863111,-0.0627 0.792635,-0.17677 -0.117488,-0.19011 0.28104,-0.31476 0.762988,-0.23867 0.109141,0.0172 0.198438,-0.0738 0.198438,-0.20239 0,-0.12855 0.267891,-0.31938 0.595312,-0.42407 0.327422,-0.10469 0.744141,-0.23764 0.926042,-0.29544 0.181901,-0.0578 0.526781,-0.14441 0.7664,-0.19245 0.239618,-0.0481 1.094323,-0.73266 1.899343,-1.52136 l 1.463673,-1.434 -1.430412,1.69296 c -1.796474,2.12621 -3.568702,3.87073 -4.459676,4.38995 -0.250247,0.14584 -0.309954,0.1168 -0.182823,-0.0889 0.110125,-0.17819 0.0261,-0.30547 -0.201654,-0.30547 -0.214743,0 -0.459894,0.14883 -0.544781,0.33073 -0.123473,0.26459 -0.185209,0.26459 -0.308681,0 -0.188324,-0.40355 -0.824588,-0.43665 -0.953602,-0.0496 -0.05154,0.15462 -0.178673,0.19616 -0.28252,0.0923 z m 2.713379,-6.16056 c 0,-0.12699 0.539292,-0.72799 1.198427,-1.33556 0.659135,-0.60757 1.140316,-1.1987 1.069292,-1.31362 -0.07103,-0.11492 0.342183,-0.66917 0.918239,-1.23168 0.576056,-0.5625 1.047375,-0.91522 1.047375,-0.78383 0,0.1314 0.142875,0.096 0.3175,-0.0786 0.429108,-0.42911 1.016509,-0.40001 1.373123,0.068 0.161564,0.21205 0.64063,0.44581 1.064592,0.51949 0.423962,0.0737 0.883229,0.24634 1.020593,0.3837 0.348314,0.34832 -0.781283,0.91086 -1.772423,0.88268 -0.438452,-0.0125 -0.919753,0.0728 -1.069556,0.1894 -0.330092,0.25701 -1.769574,0.65764 -2.091252,0.58204 -0.127259,-0.0299 -0.172813,0.25199 -0.101231,0.62645 0.09678,0.50629 -0.03957,0.81434 -0.531904,1.2016 -0.658897,0.51829 -2.442775,0.72998 -2.442775,0.28989 z m 8.202083,-2.53986 c 0,-0.0962 0.301072,-0.5697 0.669049,-1.05215 0.558333,-0.73201 0.602117,-0.90285 0.264583,-1.03237 -0.222456,-0.0854 -0.404465,-0.37796 -0.404465,-0.65021 0,-0.27225 -0.267891,-0.63789 -0.595313,-0.81253 -0.327422,-0.17464 -0.860695,-0.47137 -1.185051,-0.6594 l -0.589738,-0.34188 0.814944,-0.83354 0.814943,-0.83354 0.815666,0.92131 c 0.448615,0.50672 1.00807,0.9213 1.243232,0.9213 0.235161,0 0.570935,0.14337 0.746163,0.3186 0.248405,0.24841 0.580662,0.0614 1.508125,-0.84884 0.654241,-0.64209 1.189529,-1.2617 1.189529,-1.37693 0,-0.11522 -0.304465,-0.20949 -0.676588,-0.20949 -0.372123,0 -1.175794,-0.11219 -1.785937,-0.24931 -0.610143,-0.13713 -1.451404,-0.32166 -1.86947,-0.41008 -0.714012,-0.15101 -0.730238,-0.18261 -0.267501,-0.52098 0.27094,-0.19811 0.601624,-0.29284 0.734854,-0.2105 0.13323,0.0823 0.161628,0.0193 0.06311,-0.14012 -0.232104,-0.37556 3.769857,-4.86982 4.135275,-4.64398 0.152452,0.0942 0.203114,0.0515 0.112583,-0.095 -0.166068,-0.2687 1.957622,-2.77927 4.944198,-5.84489 1.463541,-1.50228 1.69801,-1.64707 2.414686,-1.49115 0.817693,0.17789 1.606623,0.25669 3.439583,0.34354 0.935598,0.0443 1.005113,0.0906 0.599425,0.39863 -0.2524,0.19166 -0.387398,0.41998 -0.299997,0.50738 0.0874,0.0874 -0.371785,0.73048 -1.020414,1.42905 -0.648629,0.69858 -3.11894,3.41326 -5.489579,6.03264 -2.37064,2.61937 -5.265113,5.81464 -6.432163,7.1006 -1.167049,1.28596 -2.520568,2.81527 -3.007819,3.39847 -0.487251,0.5832 -0.885911,0.98163 -0.885911,0.88539 z m 7.410145,-8.47598 c 0.610937,-0.65031 0.61315,-0.67113 0.112266,-1.05643 -0.281024,-0.21618 -0.790157,-0.46918 -1.131406,-0.56223 -0.34125,-0.093 -0.503836,-0.24273 -0.361304,-0.33263 0.142532,-0.0899 -0.128985,-0.36165 -0.603371,-0.6039 l -0.862521,-0.44046 -1.157425,1.20647 c -0.636584,0.66356 -0.952512,1.13472 -0.702062,1.04702 0.250451,-0.0877 0.618094,0.003 0.816986,0.20216 0.233444,0.23344 0.49406,0.27778 0.735261,0.1251 0.587184,-0.3717 0.84287,-0.28582 0.650187,0.2184 -0.130976,0.34273 -0.03255,0.30837 0.378875,-0.1323 0.714586,-0.76536 0.891315,-0.75141 0.736559,0.0581 -0.0687,0.3594 -0.02305,0.5905 0.101447,0.51355 0.1245,-0.0769 0.226363,-0.0138 0.226363,0.1403 0,0.46365 0.400615,0.31885 1.060145,-0.38319 z m 2.884933,-3.29269 c 0.258888,-0.13855 0.793734,-0.67543 1.188546,-1.19305 0.658264,-0.86303 0.678142,-0.95525 0.239504,-1.11122 -0.263085,-0.0935 -0.686696,-0.34903 -0.941357,-0.56775 -0.254662,-0.21871 -0.464844,-0.28991 -0.467073,-0.15822 -0.0022,0.1317 -0.09153,0.11763 -0.198437,-0.0312 -0.106913,-0.14888 -0.505438,-0.46832 -0.885613,-0.70987 -0.678905,-0.43134 -0.707456,-0.4218 -1.601776,0.53528 -1.552143,1.66107 -1.649576,1.8474 -0.890108,1.70222 0.373685,-0.0714 1.106432,0.10797 1.695909,0.41522 0.570864,0.29755 1.128343,0.45976 1.238842,0.36047 0.110499,-0.0993 0.11406,-0.0298 0.0079,0.15451 -0.106147,0.18427 -0.303829,0.26654 -0.439295,0.18282 -0.135465,-0.0837 -0.246301,-0.0191 -0.246301,0.14359 0,0.1627 -0.137459,0.21086 -0.305464,0.10702 -0.189256,-0.11696 -0.233643,-0.0726 -0.116676,0.11668 0.228998,0.37053 1.07966,0.39699 1.721385,0.0536 z m 3.649096,-4.03332 c 1.010181,-0.97911 1.086014,-1.27101 0.330186,-1.27101 -0.298268,0 -0.89358,-0.18166 -1.322916,-0.40367 -0.429336,-0.22202 -0.780611,-0.35362 -0.780611,-0.29245 0,0.0612 -0.409313,0.0189 -0.909584,-0.0939 -0.753956,-0.17005 -1.002941,-0.10578 -1.455209,0.37564 -0.692071,0.73668 -0.687572,0.94356 0.02052,0.94356 0.311379,0 0.724311,0.20836 0.917627,0.46302 0.237518,0.31289 0.354211,0.34957 0.359897,0.11312 0.0054,-0.22575 0.313529,-0.10944 0.86831,0.32779 0.472943,0.37274 0.913759,0.67902 0.979592,0.68064 0.06583,0.002 0.512317,-0.37761 0.992187,-0.84272 z m -17.681944,13.08263 c 0.137278,-0.25466 0.579033,-0.76068 0.981677,-1.12448 0.642605,-0.58061 0.623993,-0.52402 -0.152279,0.46302 -0.931138,1.18396 -1.246742,1.43566 -0.829398,0.66146 z M 111.125,149.86221 c -1.23693,-1.11404 -4.68388,-4.18371 -7.6599,-6.82147 -7.055552,-6.25362 -7.324153,-6.50015 -7.091383,-6.50858 0.108721,-0.004 0.672327,0.42166 1.252458,0.94577 1.340322,1.21091 2.803005,1.60372 3.201185,0.8597 0.18813,-0.35152 0.43866,-0.46342 0.78875,-0.35231 0.37304,0.1184 0.51306,0.0376 0.51306,-0.29596 0,-0.25234 0.0783,-0.38046 0.17409,-0.28471 0.0958,0.0958 0.33388,0.0415 0.52917,-0.12059 0.19529,-0.16208 0.35689,-0.19081 0.35912,-0.0639 0.002,0.12696 0.0915,0.0963 0.19844,-0.0681 0.12612,-0.19398 0.61253,0.12333 1.38501,0.9035 0.65484,0.66137 0.96895,1.03816 0.69801,0.83732 -0.68075,-0.5046 -2.31959,-0.33671 -2.85709,0.2927 -0.2416,0.28292 -0.68809,0.5144 -0.99218,0.5144 -0.80891,0 -0.70388,0.9177 0.1747,1.52643 1.243,0.86123 1.55802,0.86658 2.69123,0.0457 0.59097,-0.4281 1.29381,-0.77837 1.56186,-0.77837 0.75521,0 0.88492,-0.30395 0.37769,-0.88505 -0.25498,-0.29212 0.99112,0.75753 2.76911,2.33255 1.77799,1.57502 3.17079,2.96386 3.09511,3.08631 -0.0757,0.12245 0.0485,0.15121 0.27603,0.0639 0.29411,-0.11286 0.36861,-0.0414 0.25786,0.24716 -0.31978,0.83334 -1.06256,0.73626 -0.94812,-0.12391 0.0127,-0.0956 -0.15505,-0.14767 -0.37281,-0.11571 -0.21777,0.032 -0.40746,0.16971 -0.42153,0.30612 -0.0141,0.1364 -0.69541,0.49811 -1.51408,0.80381 l -1.4885,0.5558 0.6813,0.60746 c 0.79353,0.70752 2.03891,0.91514 2.61823,0.43649 0.22255,-0.18388 0.76183,-0.31078 1.19839,-0.282 1.00926,0.0666 1.76677,-0.12828 1.59286,-0.40968 -0.074,-0.1198 0.0444,-0.2865 0.26319,-0.37046 0.2188,-0.084 0.38261,-0.24527 0.36403,-0.35846 -0.1623,-0.98858 0.99832,-1.32643 2.60696,-0.75887 1.10363,0.38939 1.10592,0.38884 1.79109,-0.42544 l 0.68605,-0.81533 -1.66771,-0.66069 c -0.91725,-0.36338 -1.8098,-0.77241 -1.98345,-0.90896 -0.21902,-0.17223 -0.7357,0.1833 -1.68687,1.16073 l -1.37115,1.40901 1.15771,-1.35872 c 2.19074,-2.57113 6.44953,-7.17266 6.55322,-7.08062 0.0571,0.0507 -0.0336,0.25785 -0.2017,0.46035 -0.39251,0.47294 -0.0447,0.75042 1.55306,1.2389 1.85206,0.56624 2.18826,0.52848 3.10885,-0.34915 0.47295,-0.45087 0.8599,-0.88937 0.8599,-0.97444 0,-0.0851 -0.36718,-0.29327 -0.81596,-0.46267 -0.5623,-0.21224 -0.7878,-0.45423 -0.72537,-0.7784 0.0722,-0.37483 0.37321,-0.47651 1.48149,-0.50043 1.29241,-0.0279 1.37921,0.009 1.22578,0.52196 -0.0908,0.30358 -0.54738,0.96869 -1.01459,1.47802 -1.50628,1.64206 -11.36996,12.49759 -12.18989,13.41565 l -0.79375,0.88875 z m 3.31566,0.48894 c 0.78481,-0.85666 0.84556,-1.01308 0.44954,-1.15747 -0.65023,-0.23708 -2.24019,0.0322 -2.69196,0.45592 -0.33078,0.31023 -0.298,0.44764 0.24455,1.02516 0.3446,0.3668 0.73091,0.66691 0.85849,0.66691 0.12757,0 0.64029,-0.44574 1.13938,-0.99052 z m 2.22897,-2.3621 c 0.38098,-0.48433 0.4703,-0.79245 0.28379,-0.97896 -0.18651,-0.18651 -0.36559,-0.17875 -0.56899,0.0247 -0.16326,0.16326 -0.45016,0.23799 -0.63756,0.16608 -0.37752,-0.14487 -0.78242,0.80717 -0.52229,1.22806 0.28848,0.46678 0.8715,0.28932 1.44505,-0.43983 z m -9.31494,-2.97714 c 0.0364,-0.0111 0.11608,0.01 0.17712,0.0459 0.061,0.0364 0.38846,-0.18889 0.7276,-0.5006 0.33915,-0.31171 1.01342,-0.65075 1.49839,-0.75343 l 0.88175,-0.18668 -0.61717,-0.65993 c -1.05837,-1.13169 -1.47088,-1.23545 -2.49933,-0.62865 -0.50942,0.30057 -1.08439,0.54648 -1.27772,0.54648 -0.19333,0 -0.66619,0.16326 -1.05081,0.3628 l -0.69929,0.3628 0.91868,0.80661 c 0.75909,0.66649 1.2446,0.81776 1.94078,0.6047 z m 15.1384,-3.4472 0.55621,-0.78112 -1.04015,-0.28008 c -0.57209,-0.15405 -1.10819,-0.45739 -1.19135,-0.67409 -0.0832,-0.2167 -0.39305,-0.394 -0.68866,-0.394 -0.65162,0 -0.68804,-0.43098 -0.0989,-1.16979 0.24124,-0.3025 -0.29592,0.2239 -1.19368,1.16979 l -1.63229,1.71979 0.75376,0.15622 c 0.41456,0.0859 0.89219,0.24177 1.06139,0.34634 0.17359,0.10729 0.3094,0.0392 0.31168,-0.15622 0.003,-0.2604 0.0541,-0.26755 0.20591,-0.0288 0.23138,0.364 1.29881,0.83158 1.95484,0.8563 0.24475,0.009 0.6953,-0.33473 1.00121,-0.76435 z m 0.009,-6.02648 c 0,-0.10118 0.27352,-0.42657 0.60781,-0.72308 0.33429,-0.29651 0.45048,-0.43284 0.25819,-0.30297 -0.90405,0.61063 -0.40835,-0.14187 1.15219,-1.74905 1.53773,-1.5837 1.78555,-1.74342 2.36387,-1.52355 0.35533,0.1351 1.11335,0.27826 1.6845,0.31813 0.97055,0.0678 1.01108,0.10277 0.61994,0.53552 -0.23018,0.25466 -0.58568,0.46302 -0.78999,0.46302 -0.22677,0 -0.29408,0.12884 -0.17279,0.33073 0.15391,0.25619 0.11271,0.26148 -0.18282,0.0235 -0.20984,-0.16899 -0.94854,-0.34186 -1.64156,-0.38416 -0.95157,-0.0581 -1.37258,0.0425 -1.71979,0.41097 -0.43747,0.46422 -0.43615,0.47959 0.0271,0.31716 0.84145,-0.29503 0.96104,0.0788 0.25202,0.78782 -0.74834,0.74834 -2.45871,1.78901 -2.45871,1.49599 z m -25.431329,-0.53458 c -0.01723,-0.10914 -0.01723,-0.28774 0,-0.39688 0.01723,-0.10914 -0.102309,-0.19843 -0.265648,-0.19843 -0.206162,0 -0.196994,-0.12048 0.02998,-0.39397 0.179828,-0.21668 0.437747,-0.32549 0.573154,-0.2418 0.135407,0.0837 0.414357,0.0126 0.619889,-0.15798 0.205532,-0.17058 0.489746,-0.23842 0.631586,-0.15076 0.14184,0.0877 0.326216,0.0488 0.409723,-0.0863 0.08351,-0.13512 -0.299061,-0.60279 -0.850154,-1.03926 -0.788354,-0.62439 -1.103913,-0.73655 -1.480038,-0.52606 -0.262928,0.14714 -0.7651,0.21266 -1.115938,0.14559 -0.350838,-0.0671 -0.637887,-0.0396 -0.637887,0.061 0,0.1006 -0.431625,0.1686 -0.959167,0.1511 -0.834231,-0.0277 -1.101319,0.13324 -2.050521,1.23546 -0.600244,0.69701 -1.175511,1.26735 -1.278371,1.26742 -0.102859,7e-5 0.364788,-0.5989 1.039215,-1.33106 0.674427,-0.73215 1.390414,-1.56559 1.591082,-1.85208 0.200668,-0.28649 0.497553,-0.5209 0.659744,-0.5209 0.162191,0 0.504095,-0.18932 0.759786,-0.42072 0.672628,-0.60872 1.336424,-0.30279 3.645885,1.68029 2.583619,2.21851 3.051659,2.68793 2.082449,2.08859 -0.40018,-0.24747 -0.727602,-0.33497 -0.727602,-0.19445 0,0.26298 -0.842299,0.18604 -1.341607,-0.12255 -0.154707,-0.0956 -0.259215,-0.0131 -0.23224,0.18344 0.104393,0.76049 -0.03321,1.01874 -0.54282,1.01874 -0.291042,0 -0.543266,-0.0893 -0.560499,-0.19844 z m 32.512379,-1.25677 c 0.30187,-0.43657 1.12029,-1.32953 1.81873,-1.98438 l 1.26987,-1.19062 -1.42507,1.5875 c -1.96527,2.18926 -2.3015,2.51012 -1.66353,1.5875 z m 3.51403,-4.87284 c -0.16222,-0.30312 -0.55865,-0.56299 -0.88095,-0.57749 -0.55234,-0.0249 -0.54801,-0.0385 0.0755,-0.23821 0.62845,-0.20127 0.4731,-0.33073 -0.39688,-0.33073 -1.04408,0 -1.24071,0.0832 -1.09494,0.46302 0.16339,0.42581 -0.23091,0.55564 -0.47721,0.15713 -0.0815,-0.13186 -0.38617,-0.17751 -0.67707,-0.10144 -0.74034,0.19361 -0.65845,-0.23246 0.1987,-1.03378 1.09303,-1.02184 2.6084,-1.12991 2.4891,-0.17752 -0.0115,0.092 0.18274,0.15155 0.43169,0.13229 0.3029,-0.0234 0.42491,0.12695 0.36881,0.45456 -0.0503,0.29387 0.029,0.41983 0.19843,0.31511 0.15526,-0.096 0.28411,-0.0186 0.28633,0.17189 0.003,0.22902 0.0699,0.25018 0.19844,0.0625 0.10691,-0.15614 0.4055,-0.36182 0.66353,-0.45707 0.38193,-0.14099 0.42338,-0.0877 0.22294,0.28684 -0.1354,0.25302 -0.48587,0.67694 -0.77881,0.94204 -0.51681,0.46771 -0.54137,0.46566 -0.82757,-0.0691 z m 1.20683,-6.51737 0.66914,-0.87729 -0.54698,-0.54698 c -0.30084,-0.30084 -0.65902,-0.54698 -0.79595,-0.54698 -0.13694,0 -0.33415,-0.13782 -0.43825,-0.30626 -0.13425,-0.21723 -0.004,-0.25012 0.4474,-0.11313 0.35018,0.10622 0.81528,0.19384 1.03357,0.19471 0.50205,0.002 1.65843,0.53707 1.91417,0.88572 0.10692,0.14575 0.19621,0.69027 0.19844,1.21005 l 0.004,0.94505 -1.57736,0.0162 -1.57736,0.0162 z m 3.01476,0.67458 c 0,-0.14552 0.12609,-0.26458 0.2802,-0.26458 0.15411,0 0.20661,0.11906 0.11667,0.26458 -0.0899,0.14552 -0.21602,0.26459 -0.28019,0.26459 -0.0642,0 -0.11668,-0.11907 -0.11668,-0.26459 z m -0.13229,-0.79375 c -0.0899,-0.14552 -0.0374,-0.26458 0.11667,-0.26458 0.15411,0 0.2802,0.11906 0.2802,0.26458 0,0.14552 -0.0525,0.26459 -0.11667,0.26459 -0.0642,0 -0.19027,-0.11907 -0.2802,-0.26459 z m 3.57187,-4.36562 c 0,-0.3638 -0.12609,-0.66146 -0.2802,-0.66146 -0.15411,0 -0.20661,-0.11906 -0.11667,-0.26458 0.0899,-0.14553 0.34799,-0.26459 0.57346,-0.26459 0.31408,0 0.36822,0.17016 0.23152,0.72761 -0.17118,0.69808 -0.16195,0.70613 0.22749,0.19843 0.31777,-0.41427 0.40773,-0.44012 0.41432,-0.11906 0.009,0.43344 -0.48171,1.04511 -0.83825,1.04511 -0.11642,0 -0.21167,-0.29766 -0.21167,-0.66146 z"
           id="path5" /><path
           style="fill:#00ff00"
           d="m 69.594287,178.422 c -0.732482,-0.96759 -1.331786,-1.8421 -1.331786,-1.94337 0,-0.10126 0.252174,-0.41093 0.560388,-0.68814 0.308213,-0.27722 2.420573,-2.58762 4.694133,-5.13424 2.27356,-2.54661 4.319386,-4.76917 4.54628,-4.93902 0.226895,-0.16985 1.120451,-1.18188 1.985681,-2.24896 0.865231,-1.06708 2.300599,-2.65452 3.189708,-3.52764 1.322272,-1.29851 6.770265,-7.28849 12.633754,-13.89063 0.58158,-0.65484 1.58114,-1.76039 2.221244,-2.45678 l 1.163827,-1.26616 1.568114,1.35848 c 0.86247,0.74717 1.56812,1.4426 1.56812,1.5454 0,0.1028 -2.649141,3.10413 -5.886979,6.66963 -3.237838,3.56549 -6.355185,7.07124 -6.927437,7.79055 -0.572252,0.71931 -1.968993,2.26034 -3.103868,3.42451 -1.134876,1.16416 -2.268182,2.41432 -2.518458,2.77812 -0.250277,0.3638 -2.187286,2.55874 -4.304465,4.87763 -2.11718,2.31889 -4.902669,5.38475 -6.189976,6.81302 -1.287307,1.42827 -2.384643,2.59685 -2.438526,2.59685 -0.05388,0 -0.697271,-0.79166 -1.429754,-1.75925 z m 37.679973,-41.27586 c -0.71975,-0.65925 -1.51762,-1.27992 -1.77305,-1.37927 -0.39287,-0.1528 -0.25023,-0.40512 0.92604,-1.63809 0.76475,-0.80161 2.71769,-2.94187 4.33987,-4.75615 1.62217,-1.81427 4.74413,-5.2632 6.93767,-7.66429 2.19355,-2.4011 3.98663,-4.48469 3.98464,-4.63021 -0.002,-0.14552 -0.59388,-0.71977 -1.31528,-1.2761 -0.72141,-0.55634 -1.31165,-1.10392 -1.31165,-1.21686 0,-0.11293 1.27992,-0.53805 2.84427,-0.94471 1.56435,-0.40666 3.88607,-1.06572 5.15938,-1.46458 2.02505,-0.63435 2.31575,-0.67102 2.3203,-0.29273 0.008,0.67054 -0.88075,10.47481 -0.95908,10.57939 -0.0382,0.051 -0.34523,-0.16948 -0.68227,-0.48999 -0.33705,-0.32051 -1.01077,-0.89079 -1.49717,-1.26729 l -0.88437,-0.68456 -1.36459,1.56406 c -2.40386,2.75523 -7.09312,7.87224 -8.93199,9.74676 -0.98086,0.99989 -2.41015,2.60723 -3.17618,3.57187 -0.76603,0.96465 -1.82369,2.13359 -2.35035,2.59765 l -0.95756,0.84374 z"
           id="path4" /><path
           style="fill:#ffffff"
           d="M 102.55641,203.70332 C 92.183481,202.60931 81.066011,197.837 72.869571,190.95988 63.603896,183.18564 56.783118,171.8988 54.364078,160.3375 c -1.253029,-5.98859 -1.562982,-13.92496 -0.766779,-19.63349 2.930922,-21.01383 17.595602,-38.58303 37.683952,-45.147751 6.41284,-2.09567 11.648459,-2.82102 18.878019,-2.6154 7.72971,0.21984 13.44903,1.44162 20.1807,4.31108 22.40469,9.550261 36.066,32.934691 33.42183,57.209011 -1.45051,13.31616 -8.23203,26.5326 -18.10868,35.29185 -8.77329,7.78074 -19.74456,12.69022 -31.22083,13.97088 -2.76191,0.30821 -8.8597,0.29776 -11.87588,-0.0204 z m 13.03255,-6.20874 c 1.61169,-0.23714 2.98149,-0.58 3.20896,-0.8032 0.29416,-0.28866 0.39461,-0.98616 0.38815,-2.6951 -0.0108,-2.84841 -0.60261,-4.76404 -2.80564,-9.08121 -0.87205,-1.70891 -1.59508,-3.44335 -1.60673,-3.85432 -0.0117,-0.41096 0.36065,-1.36773 0.82736,-2.12615 1.36599,-2.21984 1.95001,-4.16596 1.96816,-6.55856 0.0188,-2.4815 -0.53378,-3.81705 -2.12056,-5.12501 -2.05732,-1.69581 -4.77225,-1.28238 -7.01555,1.06834 l -1.23669,1.29591 -0.73723,-0.96656 c -2.04451,-2.6805 -5.32788,-3.23521 -7.505349,-1.26799 -1.47455,1.33217 -1.94526,2.75844 -1.80325,5.46397 0.0925,1.76246 0.28256,2.55813 0.95354,3.99198 0.46091,0.98494 1.07884,2.129 1.37319,2.54238 0.29435,0.41337 0.535179,0.8841 0.535179,1.04606 0,0.16196 -0.599799,1.35848 -1.332889,2.65893 -1.72014,3.05141 -2.74547,5.55868 -3.30899,8.09159 -0.44395,1.9955 -0.40215,4.44033 0.0842,4.92673 0.24082,0.24082 4.37847,1.18707 6.674309,1.52637 2.61546,0.38654 10.45172,0.30843 13.45979,-0.13416 z m -9.90953,-17.85386 c -1.74035,-0.91548 -4.50777,-2.84151 -5.21771,-3.63136 -0.462499,-0.51455 -0.4564,-0.54656 0.20318,-1.06538 0.374,-0.29419 1.73858,-1.08162 3.03239,-1.74985 3.51916,-1.81757 4.36919,-1.71372 9.20902,1.12509 0.90697,0.53198 1.65111,1.11433 1.65365,1.2941 0.007,0.49379 -2.6551,2.48036 -4.99323,3.72616 -1.14202,0.6085 -2.13948,1.10635 -2.21657,1.10635 -0.0771,0 -0.82892,-0.3623 -1.67073,-0.80511 z m -4.87318,-7.92614 c -0.29104,-0.29104 -0.52917,-0.82682 -0.52917,-1.19062 0,-0.79449 0.85412,-1.71979 1.5875,-1.71979 0.71116,0 1.5875,0.91687 1.5875,1.66092 0,1.5555 -1.58928,2.30604 -2.64583,1.24949 z m 11.07588,0.25992 c -0.65454,-0.38226 -0.84884,-1.53574 -0.37938,-2.25224 0.92762,-1.41572 2.79725,-0.88843 2.79725,0.7889 0,1.45109 -1.19766,2.17594 -2.41787,1.46334 z m 19.14629,20.55475 c 19.95806,-10.44496 30.53388,-32.29741 26.11796,-53.96665 -3.77573,-18.52785 -17.88067,-33.39318 -36.23054,-38.18373 -1.38314,-0.3611 -3.70542,-0.827191 -5.16063,-1.035771 -3.50878,-0.50293 -11.16436,-0.49763 -14.53266,0.0101 -12.296259,1.853331 -23.629459,8.400901 -31.367154,18.121851 -12.517021,15.72528 -14.308223,37.44188 -4.54227,55.07057 4.47538,8.07858 12.426765,15.75837 20.608025,19.90413 l 1.38378,0.70121 0.78996,-1.74221 c 0.43447,-0.95822 1.60979,-2.77507 2.6118,-4.03744 3.65627,-4.60627 4.40343,-6.445 4.26556,-10.4973 -0.23532,-6.91622 -0.1075,-9.98484 0.50656,-12.16154 0.81522,-2.88971 1.97967,-4.95767 3.65255,-6.48659 2.406089,-2.19903 5.010889,-3.16445 8.554059,-3.17039 6.50804,-0.0109 10.7972,3.752 12.42411,10.89978 0.8606,3.78096 1.03126,6.49781 0.60165,9.57791 -0.66877,4.7948 0.0876,7.12599 3.66261,11.28785 2.26527,2.63715 3.26055,4.28003 3.56004,5.87645 0.105,0.55971 0.33768,0.97757 0.54435,0.97757 0.19852,0 1.34613,-0.51559 2.55024,-1.14575 z M 75.406251,165.58504 c -1.08743,-0.30648 -2.47948,-1.56133 -2.92487,-2.63661 -0.29888,-0.72155 -0.23752,-0.84681 1.23825,-2.52774 l 1.55272,-1.76856 0.18574,1.3057 c 0.26994,1.89759 1.05431,2.49634 3.27021,2.49634 0.93777,0 1.70324,0.0893 1.70106,0.19844 -0.002,0.10914 -0.63938,0.88304 -1.41599,1.71979 -1.49283,1.60842 -1.8166,1.71726 -3.60712,1.21264 z m 47.763269,0.0538 c -0.17995,-0.29116 -0.92481,-2.6851 -0.92916,-2.98623 -0.002,-0.10915 3.02763,-0.19844 6.73156,-0.19844 7.14,0 7.80081,-0.0979 8.31765,-1.23225 0.20193,-0.44318 0.29376,-4.51715 0.29376,-13.03202 0,-15.21703 0.47279,-13.78156 -4.53917,-13.78156 -1.95196,0 -3.40424,-0.10407 -3.35423,-0.24036 0.0485,-0.1322 0.72001,-0.9061 1.49224,-1.71979 l 1.40404,-1.47944 h 2.34904 c 1.29198,0 2.68422,0.127 3.09388,0.28221 1.58531,0.60066 2.7076,2.17662 2.75583,3.86985 0.0158,0.55402 0.0874,2.03598 0.15911,3.29324 l 0.1304,2.28592 1.69956,0.10822 c 1.31105,0.0835 1.83437,0.24291 2.28932,0.69741 0.56697,0.56642 0.59305,0.80629 0.67451,6.20482 0.091,6.0324 -0.0841,7.30682 -1.07362,7.81364 -0.32924,0.16863 -1.31299,0.33837 -2.18612,0.37721 l -1.5875,0.0706 -0.13229,3.57187 c -0.14787,3.99247 -0.35206,4.54452 -2.0779,5.61774 -0.93319,0.58031 -1.20053,0.60215 -8.15888,0.66645 -4.41727,0.0408 -7.25504,-0.0322 -7.35203,-0.1891 z m -38.502849,-0.1578 c 0,-0.0815 0.61258,-0.79585 1.36129,-1.5875 l 1.3613,-1.43937 h 2.88986 c 2.62706,0 2.87765,0.0421 2.7555,0.46302 -0.0739,0.25466 -0.26511,0.96904 -0.4249,1.5875 l -0.29053,1.12448 h -3.82626 c -2.10445,0 -3.82626,-0.0667 -3.82626,-0.14813 z m -5.90903,-5.84909 c -0.097,-0.097 -0.17639,-1.15095 -0.17639,-2.34209 v -2.16569 l 4.26675,-4.73552 c 2.34671,-2.60454 6.00788,-6.6699 8.13593,-9.03413 3.51629,-3.90654 3.94899,-4.29869 4.74408,-4.29948 0.91497,-9.1e-4 0.93346,0.0146 14.009469,11.71938 1.92899,1.72672 3.60535,3.10003 3.72524,3.0518 0.24208,-0.0974 8.31676,-8.90869 11.42061,-12.46248 l 1.98438,-2.27204 3.77031,-0.0188 3.77031,-0.0188 v 11.37681 11.37681 l -6.7338,-0.014 -6.7338,-0.014 -1.21942,-1.70886 c -4.98763,-6.98953 -16.13797,-8.00649 -22.392009,-2.04224 -0.88274,0.84183 -1.90161,2.03661 -2.26415,2.65508 l -0.65918,1.12447 h -2.24587 c -1.23523,0 -2.20618,-0.10565 -2.15767,-0.23478 0.0485,-0.12912 2.91593,-3.35489 6.37205,-7.16836 3.45612,-3.81347 6.273299,-7.07133 6.260399,-7.2397 -0.0254,-0.33131 -3.015489,-3.08424 -3.349959,-3.08424 -0.11188,0 -1.33339,1.27794 -2.71448,2.83986 -1.38109,1.56192 -3.70169,4.15242 -5.1569,5.75665 -1.45521,1.60423 -3.64596,4.047 -4.86834,5.42837 -3.42876,3.87472 -3.16999,3.7022 -5.55336,3.7022 -1.1318,0 -2.13718,-0.0794 -2.2342,-0.17638 z m -6.46904,-15.52111 0.0749,-10.40583 0.76248,-0.99933 c 1.3022,-1.70668 1.50071,-1.73693 11.39985,-1.73693 4.87962,0 8.87204,0.0689 8.87204,0.15318 0,0.0842 -0.61317,0.85816 -1.36259,1.7198 l -1.3626,1.56661 h -7.06306 c -6.78753,0 -7.08224,0.0212 -7.55458,0.54312 -0.52703,0.58236 -0.53538,0.7423 -0.61584,11.79185 l -0.033,4.52978 -1.38907,1.60265 c -0.76398,0.88147 -1.48231,1.61127 -1.59629,1.6218 -0.11398,0.0105 -0.17351,-4.6635 -0.13229,-10.3867 z m 6.29265,-1.765 v -5.29167 h 4.80351 c 4.54717,0 4.78266,0.0247 4.41292,0.46302 -1.16588,1.3821 -9.04217,10.12031 -9.12205,10.12031 -0.0519,0 -0.0944,-2.38125 -0.0944,-5.29166 z m 31.172329,-0.0662 c -1.6562,-1.49159 -3.66227,-3.27201 -4.45795,-3.95649 l -1.44667,-1.24452 0.68913,-0.69537 0.68913,-0.69537 1.63832,1.51679 1.63833,1.5168 0.86014,-0.83368 0.86014,-0.83368 h 5.11142 5.11142 l -0.99514,1.12448 c -2.65942,3.00504 -6.27538,6.81302 -6.46947,6.81302 -0.11965,0 -1.57261,-1.22039 -3.2288,-2.71198 z m -10.602009,-9.525 -2.00043,-1.65365 3.033109,-0.0747 c 1.66821,-0.0411 4.32892,-0.0411 5.9127,0 l 2.87958,0.0747 -1.57452,1.65365 -1.57452,1.65365 h -2.33775 -2.33774 z m 13.825509,1.41038 c 0,-0.13379 0.60726,-0.9077 1.34947,-1.71979 l 1.34946,-1.47653 h 5.14928 5.14928 l -1.53781,1.71965 -1.5378,1.71964 -4.96094,1.5e-4 c -2.84112,8e-5 -4.96094,-0.1038 -4.96094,-0.24312 z"
           id="path1" /></g></g></g></svg>
